<svg height="492pt" viewBox="0 0 492 492.97507" width="492pt" xmlns="http://www.w3.org/2000/svg"><path d="m14.976562 62.488281v256c.023438 8.824219 7.171876 15.972657 16 16h288c8.824219-.027343 15.972657-7.175781 16-16v-256zm0 0" fill="#00ccb3"/><path d="m478.976562 206.488281v256c-.027343 8.824219-7.175781 15.972657-16 16h-288c-8.828124-.027343-15.976562-7.175781-16-16v-256zm0 0" fill="#5aaae7"/><path d="m462.976562 158.488281h-288c-8.828124.027344-15.976562 7.175781-16 16v32h320v-32c-.027343-8.824219-7.175781-15.972656-16-16zm0 0" fill="#ff6243"/><path d="m388.175781 362.25c-1.476562 5.304688-3.597656 10.410156-6.320312 15.199219l10.640625 15.917969-22.640625 22.640624-15.921875-10.640624c-4.785156 2.726562-9.890625 4.847656-15.199219 6.320312l-3.757813 18.800781h-32l-3.761718-18.800781c-5.308594-1.472656-10.414063-3.59375-15.199219-6.320312l-15.921875 10.640624-22.640625-22.640624 10.640625-15.917969c-2.722656-4.789063-4.84375-9.894531-6.320312-15.199219l-18.796876-3.761719v-32l18.796876-3.757812c1.476562-5.308594 3.597656-10.414063 6.320312-15.203125l-10.640625-15.917969 22.640625-22.640625 15.921875 10.640625c4.785156-2.722656 9.890625-4.847656 15.199219-6.320313l3.761718-18.800781h32l3.757813 18.800781c5.308594 1.472657 10.414063 3.597657 15.199219 6.320313l15.921875-10.640625 22.640625 22.640625-10.640625 15.917969c2.722656 4.789062 4.84375 9.894531 6.320312 15.203125l18.800781 3.757812v32zm0 0" fill="#ff9811"/><path d="m334.976562 305.769531c-5.058593-2.160156-10.503906-3.277343-16-3.28125-19.011718-.003906-35.398437 13.375-39.203124 32-.550782 2.628907-.816407 5.3125-.796876 8 .027344 19.96875 14.78125 36.859375 34.566407 39.570313 19.785156 2.710937 38.539062-9.585938 43.941406-28.8125 5.402344-19.226563-4.207031-39.488282-22.507813-47.476563zm0 0" fill="#ffd422"/><path d="m334.976562 62.488281h-320v-32c.023438-8.824219 7.171876-15.972656 16-16h288c8.824219.027344 15.972657 7.175781 16 16zm0 0" fill="#ff6243"/><path d="m30.976562 342.488281h104v-16h-104c-4.421874 0-8-3.582031-8-8v-248h304v64h16v-104c0-13.253906-10.746093-24-24-24h-288c-13.257812 0-24 10.746094-24 24v288c0 13.253907 10.742188 24 24 24zm0-320h288c4.417969 0 8 3.582031 8 8v24h-304v-24c0-4.417969 3.578126-8 8-8zm0 0"/><path d="m38.976562 30.488281h16v16h-16zm0 0"/><path d="m70.976562 30.488281h16v16h-16zm0 0"/><path d="m102.976562 30.488281h16v16h-16zm0 0"/><path d="m150.976562 110.488281h16v16h-16zm0 0"/><path d="m182.976562 110.488281h16v16h-16zm0 0"/><path d="m214.976562 110.488281h16v16h-16zm0 0"/><path d="m118.976562 110.488281h16v16h-16zm0 0"/><path d="m462.976562 150.488281h-288c-13.257812 0-24 10.746094-24 24v288c0 13.253907 10.742188 24 24 24h288c13.253907 0 24-10.746093 24-24v-288c0-13.253906-10.746093-24-24-24zm-288 16h288c4.417969 0 8 3.582031 8 8v24h-304v-24c0-4.417969 3.578126-8 8-8zm288 304h-288c-4.421874 0-8-3.582031-8-8v-248h304v248c0 4.417969-3.582031 8-8 8zm0 0"/><path d="m182.976562 174.488281h16v16h-16zm0 0"/><path d="m214.976562 174.488281h16v16h-16zm0 0"/><path d="m246.976562 174.488281h16v16h-16zm0 0"/><path d="m318.976562 294.488281c-26.511718 0-48 21.492188-48 48 0 26.511719 21.488282 48 48 48 26.507813 0 48-21.488281 48-48-.027343-26.5-21.503906-47.972656-48-48zm0 80c-17.675781 0-32-14.328125-32-32s14.324219-32 32-32c17.671876 0 32 14.328125 32 32s-14.328124 32-32 32zm0 0"/><path d="m408.574219 318.648438-14.191407-2.839844c-.929687-2.644532-1.996093-5.238282-3.199218-7.769532l8-12c2.113281-3.171874 1.695312-7.398437-1-10.09375l-22.640625-22.65625c-2.695313-2.699218-6.921875-3.117187-10.097657-1l-12 8c-2.53125-1.203124-5.121093-2.269531-7.765624-3.199218l-2.863282-14.203125c-.761718-3.722657-4.039062-6.398438-7.839844-6.398438h-32c-3.804687 0-7.082031 2.675781-7.84375 6.398438l-2.839843 14.195312c-2.640625.929688-5.234375 1.996094-7.765625 3.199219l-12-8c-3.175782-2.117188-7.398438-1.699219-10.097656 1l-22.65625 22.640625c-2.695313 2.695313-3.113282 6.921875-1 10.09375l8 12c-1.199219 2.53125-2.269532 5.125-3.199219 7.769531l-14.199219 2.863282c-3.726562.761718-6.402344 4.039062-6.398438 7.839843v32c-.003906 3.800781 2.671876 7.078125 6.398438 7.839844l14.191406 2.839844c.929688 2.644531 2 5.238281 3.199219 7.769531l-8 12c-2.113281 3.171875-1.695313 7.398438 1 10.09375l22.640625 22.65625c2.695312 2.699219 6.921875 3.117188 10.097656 1l12-8c2.53125 1.203125 5.125 2.269531 7.765625 3.199219l2.863281 14.203125c.761719 3.722656 4.039063 6.398437 7.84375 6.398437h32c3.800782 0 7.078126-2.675781 7.839844-6.398437l2.839844-14.191406c2.640625-.929688 5.234375-2 7.765625-3.203126l12 8c3.175781 2.117188 7.398437 1.699219 10.097656-1l22.65625-22.640624c2.695313-2.695313 3.113281-6.921876 1-10.09375l-8-12c1.199219-2.53125 2.269531-5.125 3.199219-7.769532l14.199219-2.863281c3.726562-.761719 6.402343-4.039063 6.402343-7.839844v-32c0-3.800781-2.675781-7.078125-6.402343-7.839843zm-9.597657 33.28125-12.386718 2.480468c-2.933594.585938-5.296875 2.765625-6.121094 5.644532-1.34375 4.703124-3.222656 9.238281-5.597656 13.515624-1.460938 2.617188-1.332032 5.832032.328125 8.328126l6.992187 10.476562-13.359375 13.363281-10.480469-6.992187c-2.496093-1.664063-5.710937-1.789063-8.328124-.328125-4.277344 2.375-8.808594 4.253906-13.511719 5.597656-2.878907.824219-5.058594 3.183594-5.648438 6.121094l-2.449219 12.351562h-18.878906l-2.480468-12.382812c-.589844-2.9375-2.769532-5.300781-5.648438-6.121094-4.703125-1.34375-9.238281-3.222656-13.511719-5.601563-2.617187-1.457031-5.832031-1.332031-8.328125.328126l-10.480468 6.992187-13.359376-13.359375 6.992188-10.480469c1.660156-2.492187 1.789062-5.707031.328125-8.328125-2.378906-4.273437-4.257813-8.808594-5.601563-13.511718-.820312-2.878907-3.183593-5.058594-6.117187-5.648438l-12.351563-2.445312v-18.882813l12.382813-2.476563c2.9375-.589843 5.296875-2.769531 6.121094-5.648437 1.34375-4.703125 3.222656-9.238281 5.597656-13.511719 1.460937-2.621094 1.332031-5.835937-.328125-8.328125l-6.992188-10.480469 13.359376-13.359374 10.480468 6.992187c2.496094 1.660156 5.710938 1.785156 8.328125.328125 4.277344-2.378906 8.808594-4.257812 13.511719-5.601562 2.882812-.824219 5.058594-3.183594 5.648438-6.121094l2.449218-12.351563h18.878906l2.480469 12.382813c.589844 2.9375 2.769531 5.300781 5.648438 6.121094 4.703125 1.34375 9.238281 3.222656 13.511719 5.601562 2.617187 1.457031 5.832031 1.332031 8.328124-.328125l10.480469-6.992187 13.359375 13.359374-6.992187 10.480469c-1.660157 2.496094-1.789063 5.710938-.328125 8.328125 2.378906 4.273438 4.257812 8.808594 5.601562 13.511719.820313 2.878906 3.183594 5.058594 6.117188 5.648437l12.355468 2.445313zm0 0"/><path d="m41.734375 354.753906-14.152344 7.46875c23.304688 44.21875 59.441407 80.351563 103.65625 103.65625l7.472657-14.140625c-41.371094-21.804687-75.179688-55.613281-96.976563-96.984375zm0 0"/><path d="m452.214844 138.222656 14.152344-7.46875c-23.304688-44.21875-59.441407-80.351562-103.65625-103.65625l-7.472657 14.144532c41.371094 21.800781 75.179688 55.609374 96.976563 96.980468zm0 0"/><path d="m.488281 379.558594 13.855469-7.996094 8 13.855469-13.859375 8zm0 0"/><path d="m27.347656 420.339844 12.257813-10.285156 10.28125 12.261718-12.257813 10.28125zm0 0"/><path d="m60.867188 455.839844 10.28125-12.257813 12.257812 10.28125-10.28125 12.257813zm0 0"/><path d="m100.050781 484.976562 8-13.855468 13.855469 7.996094-8 13.859374zm0 0"/><path d="m471.601562 107.554688 13.859376-8 7.996093 13.855468-13.855469 8zm0 0"/><path d="m444.066406 70.664062 12.257813-10.28125 10.285156 12.257813-12.261719 10.28125zm0 0"/><path d="m410.546875 39.109375 10.28125-12.257813 12.257813 10.28125-10.28125 12.261719zm0 0"/><path d="m372.046875 13.855469 8-13.855469 13.855469 8-7.996094 13.855469zm0 0"/><path d="m54.976562 158.488281h64v16h-64zm0 0"/><path d="m54.976562 190.488281h64v16h-64zm0 0"/><path d="m54.976562 222.488281h64v16h-64zm0 0"/><path d="m54.976562 254.488281h64v16h-64zm0 0"/><path d="m54.976562 286.488281h64v16h-64zm0 0"/></svg>